<svg width="56" height="56" viewBox="0 0 56 56" fill="none" xmlns="http://www.w3.org/2000/svg">
<path d="M20.9842 17.0571C19.9231 13.52 19.3925 11.7514 20.2922 10.5422C21.1919 9.33301 23.0383 9.33301 26.7312 9.33301H29.2695C32.9623 9.33301 34.8088 9.33301 35.7084 10.5422C36.6081 11.7514 36.0776 13.52 35.0164 17.0571L30.7613 31.241C30.5553 31.9276 30.4523 32.2709 30.1866 32.4686C29.9208 32.6663 29.5624 32.6663 28.8456 32.6663H27.1551C26.4382 32.6663 26.0798 32.6663 25.8141 32.4686C25.5484 32.2709 25.4454 31.9276 25.2394 31.241L20.9842 17.0571Z" fill="#ED8D8D" stroke="#ED8D8D" stroke-width="2"/>
<ellipse cx="27.9997" cy="44.3337" rx="4.66667" ry="4.66667" fill="#ED8D8D" stroke="#ED8D8D" stroke-width="2"/>
</svg>
