<svg width="40" height="40" viewBox="0 0 40 40" fill="none" xmlns="http://www.w3.org/2000/svg">
<path fill-rule="evenodd" clip-rule="evenodd" d="M17.2732 21.3133L9.02591 18.5642C6.6727 17.7798 5.49609 17.3876 5.49609 16.6668C5.49609 15.9461 6.6727 15.5539 9.02592 14.7695L29.5391 7.93175C31.1949 7.37982 32.0228 7.10386 32.4598 7.54088C32.8968 7.97789 32.6208 8.80579 32.0689 10.4616L25.2312 30.9748C24.4468 33.328 24.0546 34.5046 23.3338 34.5046C22.6131 34.5046 22.2209 33.328 21.4365 30.9748L21.4364 30.9747L18.6874 22.7275L25.7076 15.7073C26.0981 15.3168 26.0981 14.6836 25.7076 14.2931C25.3171 13.9025 24.6839 13.9025 24.2934 14.2931L17.2732 21.3133Z" fill="#222222"/>
</svg>
