<svg width="31" height="31" viewBox="0 0 31 31" fill="none" xmlns="http://www.w3.org/2000/svg">
<path fill-rule="evenodd" clip-rule="evenodd" d="M15.5 27.125C21.9203 27.125 27.125 21.9203 27.125 15.5C27.125 9.07969 21.9203 3.875 15.5 3.875C9.07969 3.875 3.875 9.07969 3.875 15.5C3.875 21.9203 9.07969 27.125 15.5 27.125ZM21.4349 12.2652C21.7885 11.8409 21.7311 11.2103 21.3069 10.8568C20.8826 10.5032 20.252 10.5605 19.8984 10.9848L14.8422 17.0524C14.4954 17.4684 14.3005 17.6988 14.1449 17.8403L14.139 17.8457L14.1326 17.8409C13.9648 17.714 13.7498 17.5022 13.3668 17.1193L11.0404 14.7929C10.6499 14.4024 10.0168 14.4024 9.62623 14.7929C9.2357 15.1834 9.2357 15.8166 9.62623 16.2071L11.9526 18.5335L11.9934 18.5743L11.9935 18.5743C12.3199 18.901 12.634 19.2152 12.9263 19.4361C13.2536 19.6837 13.6824 19.9165 14.2318 19.8915C14.7812 19.8666 15.1871 19.596 15.4907 19.3198C15.7617 19.0733 16.0461 18.7319 16.3417 18.3771L16.3786 18.3327L21.4349 12.2652Z" fill="white"/>
</svg>
