<svg width="57" height="56" viewBox="0 0 57 56" fill="none" xmlns="http://www.w3.org/2000/svg">
<ellipse cx="28.4061" cy="21.0003" rx="9.4686" ry="9.33333" fill="#ED8D8D"/>
<ellipse cx="40.2411" cy="21" rx="7.10145" ry="7" fill="#ED8D8D"/>
<ellipse cx="16.5702" cy="21" rx="7.10145" ry="7" fill="#ED8D8D"/>
<path fill-rule="evenodd" clip-rule="evenodd" d="M41.5873 41.9997H48.6038C49.196 41.9997 49.6509 41.4893 49.5436 40.907C49.0093 38.0064 46.961 30.333 40.2418 30.333C38.1443 30.333 36.502 31.0808 35.2188 32.1977C38.7878 34.4802 40.6332 38.4769 41.5873 41.9997Z" fill="#ED8D8D"/>
<path fill-rule="evenodd" clip-rule="evenodd" d="M21.5935 32.1976C20.3103 31.0808 18.668 30.333 16.5705 30.333C9.85135 30.333 7.80296 38.0064 7.26867 40.9069C7.1614 41.4893 7.61627 41.9997 8.20846 41.9997H15.2249C16.1791 38.4769 18.0245 34.4801 21.5935 32.1976Z" fill="#ED8D8D"/>
<path d="M28.4061 32.667C38.3134 32.667 39.9276 42.4765 40.1906 45.6731C40.2359 46.2236 39.7941 46.667 39.2418 46.667H17.5703C17.018 46.667 16.5762 46.2236 16.6215 45.6731C16.8845 42.4766 18.4987 32.667 28.4061 32.667Z" fill="#ED8D8D"/>
</svg>
