<svg width="100" height="100" viewBox="0 0 100 100" fill="none" xmlns="http://www.w3.org/2000/svg">
<path fill-rule="evenodd" clip-rule="evenodd" d="M87.5 50C87.5 70.7107 70.7107 87.5 50 87.5C29.2893 87.5 12.5 70.7107 12.5 50C12.5 29.2893 29.2893 12.5 50 12.5C70.7107 12.5 87.5 29.2893 87.5 50ZM50 72.8333C48.8954 72.8333 48 71.9379 48 70.8333V52H29.1667C28.0621 52 27.1667 51.1046 27.1667 50C27.1667 48.8954 28.0621 48 29.1667 48H48V29.1667C48 28.0621 48.8954 27.1667 50 27.1667C51.1046 27.1667 52 28.0621 52 29.1667V48H70.8333C71.9379 48 72.8333 48.8954 72.8333 50C72.8333 51.1046 71.9379 52 70.8333 52H52V70.8333C52 71.9379 51.1046 72.8333 50 72.8333Z" fill="#ED8D8D"/>
</svg>
